<?xml version="1.0" encoding="UTF-8" standalone="no"?>
<!-- Created with Inkscape (http://www.inkscape.org/) -->

<svg
   xmlns:dc="http://purl.org/dc/elements/1.1/"
   xmlns:cc="http://creativecommons.org/ns#"
   xmlns:rdf="http://www.w3.org/1999/02/22-rdf-syntax-ns#"
   xmlns:svg="http://www.w3.org/2000/svg"
   xmlns="http://www.w3.org/2000/svg"
   version="1.1"
   width="125.7"
   height="50"
   id="svg3039">
  <metadata
     id="metadata3045">
    <rdf:RDF>
      <cc:Work
         rdf:about="">
        <dc:format>image/svg+xml</dc:format>
        <dc:type
           rdf:resource="http://purl.org/dc/dcmitype/StillImage" />
        <dc:title></dc:title>
      </cc:Work>
    </rdf:RDF>
  </metadata>
  <defs
     id="defs3043" />
  <path
     d="m 83,-3.18e-6 13.499996,0 L 114.9,49.999997 l -13.4,0 z m 29.3,-3e-7 13.4,0 -10.8,50.00000048 -13.4,0 z m -29.2,3e-7 13.399996,0 L 85.7,49.999997 l -13.4,0 z M 12.776,13.999997 29.2,-3.18e-6 18.4,49.999997 l -13.4,0 z M 1.6,14 44.4,14 57,50 43.6,50 63.6,14 77,14 57,50 43.6,50 31,14 l 9,7.4 -40,0 z"
     id="rect4239"
     style="fill:#fc0000;fill-opacity:1;stroke-width:0.2;stroke-miterlimit:4" />
</svg>
