<?xml version="1.0" standalone="no"?>
<!DOCTYPE svg PUBLIC "-//W3C//DTD SVG 20010904//EN"
 "http://www.w3.org/TR/2001/REC-SVG-20010904/DTD/svg10.dtd">
<svg version="1.0" xmlns="http://www.w3.org/2000/svg"
 width="540.000000pt" height="208.000000pt" viewBox="0 0 540.000000 208.000000"
 preserveAspectRatio="xMidYMid meet">
<metadata>
Created by potrace 1.11, written by Peter Selinger 2001-2013
</metadata>
<g transform="translate(0.000000,208.000000) scale(0.100000,-0.100000)"
fill="#CF0A17" stroke="none">
<path d="M126 2060 c-54 -27 -81 -55 -105 -106 -21 -43 -21 -58 -21 -913 0
-933 -2 -898 51 -965 12 -16 45 -39 73 -52 l51 -24 864 0 c655 0 874 3 905 12
53 16 121 84 135 134 7 26 11 320 11 902 0 701 -3 869 -13 895 -21 49 -67 98
-112 118 -38 18 -87 19 -920 18 -855 0 -881 0 -919 -19z m1054 -308 c0 -4 -18
-60 -39 -123 -43 -126 -37 -119 -156 -163 -175 -64 -324 -210 -378 -370 -25
-74 -22 -179 7 -241 102 -221 445 -241 713 -42 60 45 144 136 179 196 10 16
25 32 35 34 9 3 101 5 203 6 218 2 213 5 171 -96 -129 -303 -462 -547 -843
-619 -118 -22 -327 -15 -430 15 -204 59 -346 185 -408 360 -44 124 -30 301 36
446 59 131 200 294 335 389 84 59 235 135 326 165 121 40 249 62 249 43z"/>
</g>
<g transform="translate(0.000000,208.000000) scale(0.100000,-0.100000)"
fill="#58595B" stroke="none">
<path d="M2517 2034 c-4 -4 -7 -27 -7 -51 l0 -43 155 0 155 0 2 -342 3 -343
90 0 90 0 3 343 2 342 155 0 c177 0 154 14 209 -122 155 -379 230 -554 240
-561 6 -4 38 -6 71 -5 l60 3 192 385 c105 211 190 387 188 390 -2 3 -34 4 -73
2 l-69 -4 -128 -289 c-71 -159 -133 -288 -138 -286 -5 1 -16 18 -23 37 -105
272 -208 567 -185 540 0 0 -950 0 -950 0z"/>
<path d="M5128 968 l-3 -103 -140 -5 -140 -5 -3 -47 -3 -48 140 0 c137 0 141
-1 146 -22 3 -13 5 -114 3 -226 -2 -111 -1 -202 2 -203 9 -1 205 -1 218 0 10
1 12 80 10 379 l-3 377 -112 3 -112 3 -3 -103z"/>
<path d="M4395 1037 c-1 -7 -10 -50 -19 -97 -22 -121 -78 -230 -161 -313 -62
-63 -154 -127 -202 -142 -23 -6 -28 -20 -17 -49 8 -22 20 -20 126 14 113 36
222 99 303 174 58 55 60 55 85 39 59 -38 151 -117 213 -183 37 -38 69 -70 73
-70 4 0 146 96 173 117 16 13 -206 147 -331 200 -48 20 -88 41 -88 46 0 5 14
39 31 75 31 67 65 180 56 188 -2 3 -57 6 -121 9 -85 3 -118 0 -121 -8z"/>
<path d="M2670 990 l0 -50 220 0 220 0 0 -25 c0 -14 -8 -47 -18 -73 -54 -141
-213 -287 -399 -367 -48 -21 -89 -38 -91 -40 -1 -1 2 -14 7 -28 l10 -25 68 13
c184 35 376 127 503 242 l50 45 55 -32 c81 -46 202 -138 283 -214 l70 -67 104
62 c56 34 105 64 108 66 17 14 -299 177 -452 233 -49 18 -88 36 -88 40 0 6 26
62 70 150 6 12 41 15 209 18 l201 2 0 50 0 50 -565 0 -565 0 0 -50z"/>
<path d="M3115 408 c-3 -7 -6 -71 -7 -143 l-3 -130 -295 -5 -295 -5 1 -45 1
-45 716 -3 717 -2 0 50 0 50 -297 2 -298 3 -5 140 -5 140 -113 3 c-84 2 -114
-1 -117 -10z"/>
<path d="M4291 361 c-7 -4 -10 -64 -8 -163 2 -138 4 -158 21 -177 19 -21 21
-21 555 -19 l536 3 3 48 3 47 -435 0 -436 0 0 129 0 129 -45 6 c-52 8 -179 6
-194 -3z"/>
</g>
</svg>
