<?xml version="1.0" standalone="no"?>
<!DOCTYPE svg PUBLIC "-//W3C//DTD SVG 20010904//EN"
 "http://www.w3.org/TR/2001/REC-SVG-20010904/DTD/svg10.dtd">
<svg version="1.0" xmlns="http://www.w3.org/2000/svg"
 width="1000.000000pt" height="511.000000pt" viewBox="0 0 1000.000000 511.000000"
 preserveAspectRatio="xMidYMid meet">
<metadata>
Created by potrace 1.11, written by Peter Selinger 2001-2013
</metadata>
<g transform="translate(0.000000,511.000000) scale(0.100000,-0.100000)"
fill="#000000" stroke="none">
<path d="M3260 5097 c0 -12 -1085 -946 -1149 -989 -24 -17 -71 -18 -607 -18
-469 0 -584 -3 -592 -13 -8 -9 -12 -327 -14 -1078 l-3 -1064 -23 -80 c-94
-336 -352 -581 -684 -649 -42 -9 -102 -16 -133 -16 l-55 0 0 -596 0 -597 151
5 c87 3 154 9 157 15 4 6 27 14 52 18 163 26 364 92 545 180 545 265 934 734
1104 1330 25 90 51 219 51 256 0 16 5 29 10 29 6 0 11 26 12 58 l2 57 3 -50
c3 -27 8 -54 13 -60 4 -5 13 -44 19 -85 49 -319 197 -656 410 -935 110 -145
335 -354 496 -462 213 -143 476 -254 717 -303 57 -12 112 -26 123 -32 11 -6
84 -13 162 -16 l143 -5 0 585 c0 441 -3 587 -12 596 -7 7 -35 12 -62 12 -122
0 -323 73 -450 164 -77 55 -190 175 -234 249 -51 85 -99 204 -116 289 -13 63
-16 159 -16 536 0 343 3 461 12 470 17 17 859 17 876 0 9 -9 12 -132 12 -492
0 -515 8 -621 59 -822 134 -524 472 -984 934 -1271 213 -132 504 -243 727
-278 25 -4 48 -13 52 -19 10 -15 606 -16 616 0 4 6 39 17 77 24 39 7 122 28
186 46 367 106 703 317 968 609 40 44 79 84 87 88 10 6 48 -26 137 -119 67
-69 158 -156 202 -191 255 -206 572 -358 882 -424 54 -11 109 -26 122 -32 33
-16 592 -17 612 -1 8 7 47 17 87 24 l72 13 0 628 0 628 -82 -39 c-119 -55
-186 -71 -331 -77 -290 -13 -504 69 -697 267 -176 180 -260 410 -247 673 7
139 26 214 86 342 60 125 141 229 242 309 181 143 383 206 623 193 144 -8 240
-35 399 -115 4 -2 7 279 7 625 l0 629 -109 18 c-255 40 -473 41 -702 1 -452
-79 -858 -300 -1176 -641 -54 -57 -103 -106 -111 -109 -8 -3 -61 45 -135 121
-67 70 -158 156 -202 191 -486 391 -1105 547 -1705 427 -110 -22 -281 -74
-421 -129 -85 -34 -79 -77 -79 555 l0 560 -590 0 -590 0 0 -499 c0 -409 -2
-501 -14 -510 -9 -8 -135 -10 -447 -9 l-434 3 -3 508 c-1 326 -6 507 -12 507
-6 0 -10 -6 -10 -13z m3150 -2128 c163 -26 332 -108 455 -222 212 -195 315
-470 285 -759 -22 -214 -101 -379 -255 -533 -136 -136 -277 -215 -447 -249
-100 -21 -277 -20 -376 0 -339 70 -604 328 -689 671 -26 106 -23 324 6 433 68
254 235 461 466 578 67 33 177 69 252 82 71 11 228 11 303 -1z"/>
</g>
</svg>
