<?xml version="1.0" encoding="utf-8"?>
<!-- Generator: Adobe Illustrator 13.0.0, SVG Export Plug-In . SVG Version: 6.00 Build 14948)  -->
<!DOCTYPE svg PUBLIC "-//W3C//DTD SVG 1.1//EN" "http://www.w3.org/Graphics/SVG/1.1/DTD/svg11.dtd">
<svg version="1.1" id="Layer_1" xmlns="http://www.w3.org/2000/svg" xmlns:xlink="http://www.w3.org/1999/xlink" x="0px" y="0px"
	 width="175.584px" height="73.841px" viewBox="0 0 175.584 73.841" enable-background="new 0 0 175.584 73.841"
	 xml:space="preserve">
<g>
	<g>
		<path fill="#005293" d="M106.867,35.741l-9.613-8.824l0,0c-0.675-0.605-1.088-1.436-1.088-2.385c0-1.839,1.579-3.334,3.523-3.334
			h10.636v-4.601H94.06c-5.045,0-9.24,3.398-9.24,8.72c0,2.272,0.922,4.341,2.432,5.894L98.58,41.896c0,0,1.908,1.381,1.246,3.655
			c-0.663,2.274-3.556,2.274-4.64,2.274c-1.085,0-10.363,0-10.363,0v9.324h15.728c6.362,0,11.521-4.864,11.521-10.868v-0.085
			C112.248,41.712,109.834,38.492,106.867,35.741"/>
		<path fill="#005293" d="M170.37,35.741l-9.61-8.824l0,0c-0.676-0.605-1.09-1.436-1.09-2.385c0-1.839,1.581-3.334,3.525-3.334
			h10.635v-4.601h-16.265c-5.045,0-9.24,3.398-9.24,8.72c0,2.272,0.922,4.341,2.432,5.894l11.326,10.685c0,0,1.91,1.381,1.246,3.655
			c-0.661,2.274-3.554,2.274-4.64,2.274c-1.085,0-10.362,0-10.362,0v9.324h15.729c6.361,0,11.521-4.864,11.521-10.868v-0.085
			C175.75,41.712,173.34,38.492,170.37,35.741"/>
		<g>
			<path fill="#005293" d="M146.132,45.376c0-4.868-2.719-9.564-8.164-11.424c4.121-1.263,6.258-4.294,6.258-8.555
				c0-2.855-1.354-5.246-3.478-6.806c-3.055-2.104-7.632-1.94-7.632-1.94l-0.003-0.009c-4.761,0-17.951,0-17.951,0l0.007,40.502
				c0,0,13.081,0,19.098,0c1.611-0.074,5.016-0.517,7.768-2.765C144.479,52.226,146.132,49.005,146.132,45.376z M124.875,21.271
				h4.309c0.654,0,5.16,0.001,5.533,4.385c0.267,3.143-1.872,5.107-5.327,5.107c-1.556,0-4.515,0-4.515,0V21.271z M130.052,47.831
				c-1.557,0-5.177,0-5.177,0V37.041h4.974c0.652,0,5.677,0.003,6.05,4.989C136.167,45.599,133.508,47.831,130.052,47.831z"/>
		</g>
	</g>
	<g>
		<path fill="#0086CE" d="M73.34,42.305c0.899-8.832,0.672-10.862-3.939-17.101c-1.165-1.577-2.061-2.991-0.478-2.572
			c1.46,0.384,0.378-2.907,1.739-2.086C68.518,10.718,56.717,4.881,47.724,1.62c-2.129-0.463-4.261-0.927-6.389-1.393
			C40.154,0.23,38.497,0,37.313,0c-7.567,0.949-14.676,0.988-21.052,5.447c-1.89,1.409-3.765,3.96-5.892,5.836
			c-1.18,1.175-1.649,2.11-2.833,3.284c-4.718,5.862-6.835,12.419-7.53,19.678c-0.211,14.512,4.715,25.76,18.416,33.27
			c1.471,0.807,11.438,5.517,16.687,6.175c6.21,0.775,14.547-1.605,16.91-2.781c1.89-1.408,3.899-1.294,5.314-2.934
			c1.181-1.172,3.941-2.976,4.646-4.385C65.281,58.2,74.298,48.624,73.34,42.305z"/>
		<path fill="#F6AC00" d="M59.652,39.311c0.54-5.299,0.403-6.519-2.36-10.262c-0.701-0.944-1.238-1.795-0.287-1.543
			c0.875,0.229,1.148-0.906,1.043-1.251c-1.288-5.895-8.367-9.397-13.766-11.353c-1.276-0.28-2.556-0.56-3.831-0.838
			c-0.711,0.001-1.705-0.14-2.416-0.136c-4.538,0.571-8.803,0.592-12.631,3.267c-1.133,0.845-2.26,2.377-3.535,3.505
			c-0.707,0.702-0.987,1.264-1.698,1.969c-2.831,3.515-4.102,7.45-4.519,11.807c-0.127,8.705,2.832,15.454,11.05,19.961
			c0.883,0.484,6.865,3.312,10.012,3.704c3.728,0.464,8.728-0.963,10.146-1.666c1.135-0.849,2.341-0.779,3.188-1.767
			c0.709-0.704,2.364-1.784,2.79-2.628C54.819,48.846,60.23,43.103,59.652,39.311z"/>
		<path fill="#FFFFFF" d="M22.397,29.7c3.979-7.914,13.685-11.134,21.681-7.195c7.993,3.937,11.248,13.542,7.271,21.456
			c-3.98,7.913-13.688,11.133-21.68,7.195C21.672,47.219,18.417,37.61,22.397,29.7z"/>
	</g>
</g>
</svg>
